# xmcd CD database file
#
# Track frame offsets:
#	150
#	7255
#	17562
#	28305
#	36095
#	44347
#	51430
#	62195
#	73175
#	80717
#	91182
#	99382
#	108757
#	117610
#	125437
#	132887
#
# Disc length: 1908 seconds
#
# Revision: 2
# Processed by: cddbd v1.5.2PL0 Copyright (c) Steve Scherf et al.
# Submitted via: CDex 1.70beta2
#
DISCID=e2077210
DTITLE=Archibald - Muscle_ Fingers - Honky Tonk Piano
DYEAR=1959
DGENRE=Instrumental
TTITLE0=The Shim Sham Shimmy Dance
TTITLE1=Gulf Coast Blues
TTITLE2=The Breeze
TTITLE3=Waiting For My Baby
TTITLE4=Barrel House Rag
TTITLE5=Ooh, Looka There Ain't She Pretty
TTITLE6=Just Because
TTITLE7=Cow Cow Boogie
TTITLE8=Little Girl
TTITLE9=18th and 19th On Chestnut St.
TTITLE10=Have I Told You Lately
TTITLE11=I'm Not Worrying
TTITLE12=Cancodlin Rag
TTITLE13=Heartaches
TTITLE14=Old Piano Roll Blues
TTITLE15=Charleston Parisienne
EXTD=YEAR: 1959
EXTT0=
EXTT1=
EXTT2=
EXTT3=
EXTT4=
EXTT5=
EXTT6=
EXTT7=
EXTT8=
EXTT9=
EXTT10=
EXTT11=
EXTT12=
EXTT13=
EXTT14=
EXTT15=
PLAYORDER=
